<?xml version="1.0" encoding="UTF-8" standalone="no"?><svg xmlns="http://www.w3.org/2000/svg" xmlns:xlink="http://www.w3.org/1999/xlink" clip-rule="evenodd" stroke-miterlimit="4.00" viewBox="0 0 720 540"><desc>SVG generated by Keynote</desc><defs><linearGradient id="gradSh1.121" x1="0.0" y1="0.0" x2="100.0" y2="0.0" gradientUnits="userSpaceOnUse" gradientTransform="matrix(0.00, 5.42, 7.22, 0.00, 360.0, -1.0)"><stop offset="0.00000" stop-color="#860C00"></stop><stop offset="0.08578" stop-color="#870C00"></stop><stop offset="0.09897" stop-color="#880D01"></stop><stop offset="0.10924" stop-color="#890D01"></stop><stop offset="0.13563" stop-color="#8B0E02"></stop><stop offset="0.14370" stop-color="#8C0E02"></stop><stop offset="0.20894" stop-color="#911004"></stop><stop offset="0.21261" stop-color="#921004"></stop><stop offset="0.35630" stop-color="#9E1408"></stop><stop offset="0.36217" stop-color="#9F1408"></stop><stop offset="0.65103" stop-color="#B81C10"></stop><stop offset="0.66129" stop-color="#B91C10"></stop><stop offset="0.79765" stop-color="#C42014"></stop><stop offset="0.79912" stop-color="#C52014"></stop><stop offset="1.00000" stop-color="#D62519"></stop></linearGradient></defs><g transform="matrix(1.00, 0.00, -0.00, -1.00, 0.0, 540.0)"><g><clipPath id="clip-3415"><path d="M 0.0 540.0 L 720.0 540.0 L 720.0 0.0 L 0.0 0.0 Z M 0.0 540.0 "></path></clipPath><g clip-path="url(#clip-3415)"><path d="M 0.0 540.0 L 720.0 540.0 L 720.0 0.0 L 0.0 0.0 Z M 0.0 540.0 " fill="url(#gradSh1.121)"></path></g></g><g><clipPath id="clip-3416"><path d="M -7.7 147.8 L 91.2 147.8 L 91.2 247.7 L -7.7 247.7 Z M -7.7 147.8 "></path></clipPath><g clip-path="url(#clip-3416)"><image xlink:href="../../9408F439-143C-4604-8AA0-907D6DBBA087/assets/E70D7D75A18E87CBE73ADEC43FEB1B3A.png" width="99.00" height="100.00" transform="matrix(1.00, 0.00, -0.00, -1.00, -8.0, 248.0)"></image></g></g><g><clipPath id="clip-3417"><path d="M 29.3 431.5 L 126.7 431.5 L 126.7 517.9 L 29.3 517.9 Z M 29.3 431.5 "></path></clipPath><g clip-path="url(#clip-3417)"><image xlink:href="../../9408F439-143C-4604-8AA0-907D6DBBA087/assets/5511AAF5957FEA511F648913D91C66C2.png" width="98.00" height="87.00" transform="matrix(1.00, 0.00, -0.00, -0.99, 29.0, 518.0)"></image></g></g><g><clipPath id="clip-3418"><path d="M 601.9 402.7 L 698.4 402.7 L 698.4 497.8 L 601.9 497.8 Z M 601.9 402.7 "></path></clipPath><g clip-path="url(#clip-3418)"><image xlink:href="../../9408F439-143C-4604-8AA0-907D6DBBA087/assets/AA0D8E73D34431475A638D0FF9E552F5.png" width="97.00" height="96.00" transform="matrix(0.99, 0.00, -0.00, -0.99, 602.0, 498.0)"></image></g></g><g><clipPath id="clip-3419"><path d="M 539.0 333.6 L 654.2 333.6 L 654.2 397.0 L 539.0 397.0 Z M 539.0 333.6 "></path></clipPath><g clip-path="url(#clip-3419)"><image xlink:href="../../9408F439-143C-4604-8AA0-907D6DBBA087/assets/4710DFB20583DEAD6F17517560162F70.png" width="116.00" height="63.00" transform="matrix(0.99, 0.00, -0.00, -1.00, 539.0, 397.0)"></image></g></g><g><clipPath id="clip-3420"><path d="M 605.3 58.6 L 717.1 58.6 L 717.1 141.1 L 605.3 141.1 Z M 605.3 58.6 "></path></clipPath><g clip-path="url(#clip-3420)"><image xlink:href="../../9408F439-143C-4604-8AA0-907D6DBBA087/assets/A9FFA84A700C94B402B9E467E82F2746.png" width="112.00" height="83.00" transform="matrix(1.00, 0.00, -0.00, -0.99, 605.0, 141.0)"></image></g></g><g><clipPath id="clip-3421"><path d="M 559.7 1.4 L 673.4 1.4 L 673.4 97.4 L 559.7 97.4 Z M 559.7 1.4 "></path></clipPath><g clip-path="url(#clip-3421)"><image xlink:href="../../9408F439-143C-4604-8AA0-907D6DBBA087/assets/EF7A04D23F8353594D285E3DB6656C72.png" width="114.00" height="96.00" transform="matrix(0.99, 0.00, -0.00, -1.00, 560.0, 97.0)"></image></g></g><g><clipPath id="clip-3422"><path d="M 602.4 168.0 L 688.3 168.0 L 688.3 246.7 L 602.4 246.7 Z M 602.4 168.0 "></path></clipPath><g clip-path="url(#clip-3422)"><image xlink:href="../../9408F439-143C-4604-8AA0-907D6DBBA087/assets/F9BE770B284F440602FD5722EEC71D40.png" width="86.00" height="79.00" transform="matrix(1.00, 0.00, -0.00, -1.00, 602.0, 247.0)"></image></g></g><g><clipPath id="clip-3423"><path d="M 531.8 35.5 L 604.3 35.5 L 604.3 126.7 L 531.8 126.7 Z M 531.8 35.5 "></path></clipPath><g clip-path="url(#clip-3423)"><image xlink:href="../../9408F439-143C-4604-8AA0-907D6DBBA087/assets/D0DC0B710177DD344F5A9DEFC62352AC.png" width="72.00" height="92.00" transform="matrix(1.00, 0.00, -0.00, -0.99, 532.0, 127.0)"></image></g></g><g><clipPath id="clip-3424"><path d="M 565.9 281.3 L 641.8 281.3 L 641.8 347.5 L 565.9 347.5 Z M 565.9 281.3 "></path></clipPath><g clip-path="url(#clip-3424)"><image xlink:href="../../9408F439-143C-4604-8AA0-907D6DBBA087/assets/15CABFDA75F68D7B7613986787ED9511.png" width="76.00" height="66.00" transform="matrix(1.00, 0.00, -0.00, -1.02, 566.0, 348.0)"></image></g></g><g><clipPath id="clip-3425"><path d="M 637.4 447.4 L 696.0 447.4 L 696.0 522.2 L 637.4 522.2 Z M 637.4 447.4 "></path></clipPath><g clip-path="url(#clip-3425)"><image xlink:href="../../9408F439-143C-4604-8AA0-907D6DBBA087/assets/73DD34A5EDC26D7AC3CE33478776AACC.png" width="58.00" height="75.00" transform="matrix(1.02, 0.00, -0.00, -1.00, 637.0, 522.0)"></image></g></g><g><clipPath id="clip-3426"><path d="M 543.4 419.5 L 618.7 419.5 L 618.7 456.5 L 543.4 456.5 Z M 543.4 419.5 "></path></clipPath><g clip-path="url(#clip-3426)"><image xlink:href="../../9408F439-143C-4604-8AA0-907D6DBBA087/assets/B7BD32F4870B8C0B0AF3ECE4F3293A24.png" width="76.00" height="37.00" transform="matrix(1.00, 0.00, -0.00, -0.97, 543.0, 456.0)"></image></g></g><g><clipPath id="clip-3427"><path d="M 54.7 436.8 L 125.8 436.8 L 125.8 520.3 L 54.7 520.3 Z M 54.7 436.8 "></path></clipPath><g clip-path="url(#clip-3427)"><image xlink:href="../../9408F439-143C-4604-8AA0-907D6DBBA087/assets/DBB1213ED9906DB8BBB8168252770151.png" width="71.00" height="84.00" transform="matrix(1.00, 0.00, -0.00, -0.99, 55.0, 520.0)"></image></g></g><g><clipPath id="clip-3428"><path d="M 690.7 374.4 L 724.3 374.4 L 724.3 444.5 L 690.7 444.5 Z M 690.7 374.4 "></path></clipPath><g clip-path="url(#clip-3428)"><image xlink:href="../../9408F439-143C-4604-8AA0-907D6DBBA087/assets/1E53F7E4997C5605C5FC38A77B892288.png" width="34.00" height="71.00" transform="matrix(0.97, 0.00, -0.00, -0.99, 691.0, 444.0)"></image></g></g><g><clipPath id="clip-3429"><path d="M -3.4 61.4 L 59.5 61.4 L 59.5 141.6 L -3.4 141.6 Z M -3.4 61.4 "></path></clipPath><g clip-path="url(#clip-3429)"><image xlink:href="../../9408F439-143C-4604-8AA0-907D6DBBA087/assets/23E145838ED009458A23CB15A8FFB0B6.png" width="63.00" height="81.00" transform="matrix(1.00, 0.00, -0.00, -1.00, -3.0, 142.0)"></image></g></g><g><clipPath id="clip-3430"><path d="M -4.3 276.5 L 39.8 276.5 L 39.8 352.3 L -4.3 352.3 Z M -4.3 276.5 "></path></clipPath><g clip-path="url(#clip-3430)"><image xlink:href="../../9408F439-143C-4604-8AA0-907D6DBBA087/assets/189B4D3211889A6D485E8A863242B998.png" width="44.00" height="76.00" transform="matrix(1.00, 0.00, -0.00, -1.00, -4.0, 352.0)"></image></g></g><g><clipPath id="clip-3431"><path d="M 669.1 -4.3 L 724.3 -4.3 L 724.3 57.6 L 669.1 57.6 Z M 669.1 -4.3 "></path></clipPath><g clip-path="url(#clip-3431)"><image xlink:href="../../9408F439-143C-4604-8AA0-907D6DBBA087/assets/0F63C6D7B396E8B3864CA983DC9F2002.png" width="55.00" height="62.00" transform="matrix(1.00, 0.00, -0.00, -1.00, 669.0, 58.0)"></image></g></g><g><clipPath id="clip-3432"><path d="M 613.0 276.5 L 717.6 276.5 L 717.6 422.9 L 613.0 422.9 Z M 613.0 276.5 "></path></clipPath><g clip-path="url(#clip-3432)"><image xlink:href="../../9408F439-143C-4604-8AA0-907D6DBBA087/assets/08C106BABAD9D72BC4B93B58C66191D6.png" width="105.00" height="147.00" transform="matrix(1.00, 0.00, -0.00, -1.00, 613.0, 423.0)"></image></g></g><g><clipPath id="clip-3433"><path d="M 619.2 54.7 L 711.8 54.7 L 711.8 101.3 L 619.2 101.3 Z M 619.2 54.7 "></path></clipPath><g clip-path="url(#clip-3433)"><image xlink:href="../../9408F439-143C-4604-8AA0-907D6DBBA087/assets/A147AF6D5782BE1648E4BC0E84B34A73.png" width="93.00" height="46.00" transform="matrix(1.00, 0.00, -0.00, -1.00, 619.0, 101.0)"></image></g></g><g><clipPath id="clip-3434"><path d="M 561.6 109.9 L 643.7 109.9 L 643.7 219.8 L 561.6 219.8 Z M 561.6 109.9 "></path></clipPath><g clip-path="url(#clip-3434)"><image xlink:href="../../9408F439-143C-4604-8AA0-907D6DBBA087/assets/72174FE7F66AF805013AB3DD2F41FA42.png" width="82.00" height="110.00" transform="matrix(1.00, 0.00, -0.00, -1.00, 562.0, 220.0)"></image></g></g><g><clipPath id="clip-3435"><path d="M 605.8 415.7 L 663.8 415.7 L 663.8 508.8 L 605.8 508.8 Z M 605.8 415.7 "></path></clipPath><g clip-path="url(#clip-3435)"><image xlink:href="../../9408F439-143C-4604-8AA0-907D6DBBA087/assets/664DD52B084456DBD7BE88E15D48C2D7.png" width="58.00" height="94.00" transform="matrix(1.00, 0.00, -0.00, -0.99, 606.0, 509.0)"></image></g></g><g><clipPath id="clip-3436"><path d="M 636.5 184.8 L 713.8 184.8 L 713.8 273.6 L 636.5 273.6 Z M 636.5 184.8 "></path></clipPath><g clip-path="url(#clip-3436)"><image xlink:href="../../9408F439-143C-4604-8AA0-907D6DBBA087/assets/98F6056BE61B033DA497075852B97D34.png" width="77.00" height="89.00" transform="matrix(1.01, 0.00, -0.00, -1.00, 636.0, 274.0)"></image></g></g><g><clipPath id="clip-3437"><path d="M -2.4 -3.4 L 42.2 -3.4 L 42.2 62.9 L -2.4 62.9 Z M -2.4 -3.4 "></path></clipPath><g clip-path="url(#clip-3437)"><image xlink:href="../../9408F439-143C-4604-8AA0-907D6DBBA087/assets/235B424E202654CE6867E3C391513243.png" width="44.00" height="67.00" transform="matrix(1.00, 0.00, -0.00, -0.99, -2.0, 63.0)"></image></g></g><g><clipPath id="clip-3438"><path d="M -3.8 186.2 L 73.0 186.2 L 73.0 278.4 L -3.8 278.4 Z M -3.8 186.2 "></path></clipPath><g clip-path="url(#clip-3438)"><image xlink:href="../../9408F439-143C-4604-8AA0-907D6DBBA087/assets/2319A82F99CA2860F5F12BDFC668426D.png" width="77.00" height="93.00" transform="matrix(1.00, 0.00, -0.00, -0.99, -4.0, 278.0)"></image></g></g><g><clipPath id="clip-3439"><path d="M -4.8 321.1 L 41.3 321.1 L 41.3 432.0 L -4.8 432.0 Z M -4.8 321.1 "></path></clipPath><g clip-path="url(#clip-3439)"><image xlink:href="../../9408F439-143C-4604-8AA0-907D6DBBA087/assets/5CD756441A46B72EB70FB75B4CE7912D.png" width="46.00" height="111.00" transform="matrix(1.00, 0.00, -0.00, -1.00, -5.0, 432.0)"></image></g></g><g><clipPath id="clip-3440"><path d="M -4.3 476.6 L 86.9 476.6 L 86.9 544.3 L -4.3 544.3 Z M -4.3 476.6 "></path></clipPath><g clip-path="url(#clip-3440)"><image xlink:href="../../9408F439-143C-4604-8AA0-907D6DBBA087/assets/DC5B1C957438D88E0FC684282D50A987.png" width="92.00" height="67.00" transform="matrix(0.99, 0.00, -0.00, -1.00, -4.0, 544.0)"></image></g></g><g><clipPath id="clip-3441"><path d="M 653.3 491.0 L 724.3 491.0 L 724.3 543.4 L 653.3 543.4 Z M 653.3 491.0 "></path></clipPath><g clip-path="url(#clip-3441)"><image xlink:href="../../9408F439-143C-4604-8AA0-907D6DBBA087/assets/E8D659A10B58242579F585DBAA3F0BC4.png" width="72.00" height="52.00" transform="matrix(0.99, 0.00, -0.00, -1.00, 653.0, 543.0)"></image></g></g><g><clipPath id="clip-3442"><path d="M 545.8 -3.4 L 644.2 -3.4 L 644.2 54.2 L 545.8 54.2 Z M 545.8 -3.4 "></path></clipPath><g clip-path="url(#clip-3442)"><image xlink:href="../../9408F439-143C-4604-8AA0-907D6DBBA087/assets/334C0C4660F585724208F83145EDCFA6.png" width="99.00" height="58.00" transform="matrix(0.99, 0.00, -0.00, -0.98, 546.0, 54.0)"></image></g></g><text xml:space="preserve" font-family="Verdana" font-size="13.3" fill="#FFFFFF" transform="matrix(1.00, 0.00, -0.00, -1.00, 112.0, 456.0)">T</text><text xml:space="preserve" font-family="Verdana" font-size="13.3" fill="#FFFFFF" transform="matrix(1.00, 0.00, -0.00, -1.00, 120.2, 456.0)">h</text><text xml:space="preserve" font-family="Verdana" font-size="13.3" fill="#FFFFFF" transform="matrix(1.00, 0.00, -0.00, -1.00, 128.6, 456.0)">e</text><text xml:space="preserve" font-family="Verdana" font-size="13.3" fill="#FFFFFF" transform="matrix(1.00, 0.00, -0.00, -1.00, 136.6, 456.0)">s</text><text xml:space="preserve" font-family="Verdana" font-size="13.3" fill="#FFFFFF" transform="matrix(1.00, 0.00, -0.00, -1.00, 143.5, 456.0)">e</text><text xml:space="preserve" font-family="Verdana" font-size="13.3" fill="#FFFFFF" transform="matrix(1.00, 0.00, -0.00, -1.00, 151.4, 456.0)"> </text><text xml:space="preserve" font-family="Verdana" font-size="13.3" fill="#FFFFFF" transform="matrix(1.00, 0.00, -0.00, -1.00, 156.1, 456.0)">w</text><text xml:space="preserve" font-family="Verdana" font-size="13.3" fill="#FFFFFF" transform="matrix(1.00, 0.00, -0.00, -1.00, 167.0, 456.0)">e</text><text xml:space="preserve" font-family="Verdana" font-size="13.3" fill="#FFFFFF" transform="matrix(1.00, 0.00, -0.00, -1.00, 175.0, 456.0)">r</text><text xml:space="preserve" font-family="Verdana" font-size="13.3" fill="#FFFFFF" transform="matrix(1.00, 0.00, -0.00, -1.00, 180.6, 456.0)">e</text><text xml:space="preserve" font-family="Verdana" font-size="13.3" fill="#FFFFFF" transform="matrix(1.00, 0.00, -0.00, -1.00, 188.6, 456.0)"> </text><text xml:space="preserve" font-family="Verdana" font-size="13.3" fill="#FFFFFF" transform="matrix(1.00, 0.00, -0.00, -1.00, 193.2, 456.0)">p</text><text xml:space="preserve" font-family="Verdana" font-size="13.3" fill="#FFFFFF" transform="matrix(1.00, 0.00, -0.00, -1.00, 201.5, 456.0)">h</text><text xml:space="preserve" font-family="Verdana" font-size="13.3" fill="#FFFFFF" transform="matrix(1.00, 0.00, -0.00, -1.00, 210.0, 456.0)">o</text><text xml:space="preserve" font-family="Verdana" font-size="13.3" fill="#FFFFFF" transform="matrix(1.00, 0.00, -0.00, -1.00, 218.1, 456.0)">t</text><text xml:space="preserve" font-family="Verdana" font-size="13.3" fill="#FFFFFF" transform="matrix(1.00, 0.00, -0.00, -1.00, 223.3, 456.0)">o</text><text xml:space="preserve" font-family="Verdana" font-size="13.3" fill="#FFFFFF" transform="matrix(1.00, 0.00, -0.00, -1.00, 231.4, 456.0)">s</text><text xml:space="preserve" font-family="Verdana" font-size="13.3" fill="#FFFFFF" transform="matrix(1.00, 0.00, -0.00, -1.00, 238.3, 456.0)"> </text><text xml:space="preserve" font-family="Verdana" font-size="13.3" fill="#FFFFFF" transform="matrix(1.00, 0.00, -0.00, -1.00, 243.0, 456.0)">f</text><text xml:space="preserve" font-family="Verdana" font-size="13.3" fill="#FFFFFF" transform="matrix(1.00, 0.00, -0.00, -1.00, 247.7, 456.0)">o</text><text xml:space="preserve" font-family="Verdana" font-size="13.3" fill="#FFFFFF" transform="matrix(1.00, 0.00, -0.00, -1.00, 255.8, 456.0)">u</text><text xml:space="preserve" font-family="Verdana" font-size="13.3" fill="#FFFFFF" transform="matrix(1.00, 0.00, -0.00, -1.00, 264.2, 456.0)">n</text><text xml:space="preserve" font-family="Verdana" font-size="13.3" fill="#FFFFFF" transform="matrix(1.00, 0.00, -0.00, -1.00, 272.6, 456.0)">d</text><text xml:space="preserve" font-family="Verdana" font-size="13.3" fill="#FFFFFF" transform="matrix(1.00, 0.00, -0.00, -1.00, 280.9, 456.0)"> </text><text xml:space="preserve" font-family="Verdana" font-size="13.3" fill="#FFFFFF" transform="matrix(1.00, 0.00, -0.00, -1.00, 285.6, 456.0)">i</text><text xml:space="preserve" font-family="Verdana" font-size="13.3" fill="#FFFFFF" transform="matrix(1.00, 0.00, -0.00, -1.00, 289.2, 456.0)">n</text><text xml:space="preserve" font-family="Verdana" font-size="13.3" fill="#FFFFFF" transform="matrix(1.00, 0.00, -0.00, -1.00, 297.7, 456.0)"> </text><text xml:space="preserve" font-family="Verdana" font-size="13.3" fill="#FFFFFF" transform="matrix(1.00, 0.00, -0.00, -1.00, 302.4, 456.0)">t</text><text xml:space="preserve" font-family="Verdana" font-size="13.3" fill="#FFFFFF" transform="matrix(1.00, 0.00, -0.00, -1.00, 307.6, 456.0)">h</text><text xml:space="preserve" font-family="Verdana" font-size="13.3" fill="#FFFFFF" transform="matrix(1.00, 0.00, -0.00, -1.00, 316.0, 456.0)">e</text><text xml:space="preserve" font-family="Verdana" font-size="13.3" fill="#FFFFFF" transform="matrix(1.00, 0.00, -0.00, -1.00, 324.0, 456.0)"> </text><text xml:space="preserve" font-family="Verdana" font-size="13.3" fill="#FFFFFF" transform="matrix(1.00, 0.00, -0.00, -1.00, 328.6, 456.0)">p</text><text xml:space="preserve" font-family="Verdana" font-size="13.3" fill="#FFFFFF" transform="matrix(1.00, 0.00, -0.00, -1.00, 336.9, 456.0)">o</text><text xml:space="preserve" font-family="Verdana" font-size="13.3" fill="#FFFFFF" transform="matrix(1.00, 0.00, -0.00, -1.00, 345.0, 456.0)">s</text><text xml:space="preserve" font-family="Verdana" font-size="13.3" fill="#FFFFFF" transform="matrix(1.00, 0.00, -0.00, -1.00, 352.0, 456.0)">s</text><text xml:space="preserve" font-family="Verdana" font-size="13.3" fill="#FFFFFF" transform="matrix(1.00, 0.00, -0.00, -1.00, 358.9, 456.0)">e</text><text xml:space="preserve" font-family="Verdana" font-size="13.3" fill="#FFFFFF" transform="matrix(1.00, 0.00, -0.00, -1.00, 366.8, 456.0)">s</text><text xml:space="preserve" font-family="Verdana" font-size="13.3" fill="#FFFFFF" transform="matrix(1.00, 0.00, -0.00, -1.00, 373.8, 456.0)">s</text><text xml:space="preserve" font-family="Verdana" font-size="13.3" fill="#FFFFFF" transform="matrix(1.00, 0.00, -0.00, -1.00, 380.7, 456.0)">i</text><text xml:space="preserve" font-family="Verdana" font-size="13.3" fill="#FFFFFF" transform="matrix(1.00, 0.00, -0.00, -1.00, 384.4, 456.0)">o</text><text xml:space="preserve" font-family="Verdana" font-size="13.3" fill="#FFFFFF" transform="matrix(1.00, 0.00, -0.00, -1.00, 392.5, 456.0)">n</text><text xml:space="preserve" font-family="Verdana" font-size="13.3" fill="#FFFFFF" transform="matrix(1.00, 0.00, -0.00, -1.00, 400.9, 456.0)"> </text><text xml:space="preserve" font-family="Verdana" font-size="13.3" fill="#FFFFFF" transform="matrix(1.00, 0.00, -0.00, -1.00, 405.6, 456.0)">o</text><text xml:space="preserve" font-family="Verdana" font-size="13.3" fill="#FFFFFF" transform="matrix(1.00, 0.00, -0.00, -1.00, 413.6, 456.0)">f</text><text xml:space="preserve" font-family="Verdana" font-size="13.3" fill="#FFFFFF" transform="matrix(1.00, 0.00, -0.00, -1.00, 418.3, 456.0)"> </text><text xml:space="preserve" font-family="Verdana" font-size="13.3" fill="#FFFFFF" transform="matrix(1.00, 0.00, -0.00, -1.00, 423.0, 456.0)">W</text><text xml:space="preserve" font-family="Verdana" font-size="13.3" fill="#FFFFFF" transform="matrix(1.00, 0.00, -0.00, -1.00, 435.5, 456.0)">a</text><text xml:space="preserve" font-family="Verdana" font-size="13.3" fill="#FFFFFF" transform="matrix(1.00, 0.00, -0.00, -1.00, 443.5, 456.0)">l</text><text xml:space="preserve" font-family="Verdana" font-size="13.3" fill="#FFFFFF" transform="matrix(1.00, 0.00, -0.00, -1.00, 447.2, 456.0)">t</text><text xml:space="preserve" font-family="Verdana" font-size="13.3" fill="#FFFFFF" transform="matrix(1.00, 0.00, -0.00, -1.00, 452.4, 456.0)">e</text><text xml:space="preserve" font-family="Verdana" font-size="13.3" fill="#FFFFFF" transform="matrix(1.00, 0.00, -0.00, -1.00, 460.3, 456.0)">r</text><text xml:space="preserve" font-family="Verdana" font-size="13.3" fill="#FFFFFF" transform="matrix(1.00, 0.00, -0.00, -1.00, 466.2, 456.0)">’</text><text xml:space="preserve" font-family="Verdana" font-size="13.3" fill="#FFFFFF" transform="matrix(1.00, 0.00, -0.00, -1.00, 469.3, 456.0)">s</text><text xml:space="preserve" font-family="Verdana" font-size="13.3" fill="#FFFFFF" transform="matrix(1.00, 0.00, -0.00, -1.00, 476.3, 456.0)"> </text><text xml:space="preserve" font-family="Verdana" font-size="13.3" fill="#FFFFFF" transform="matrix(1.00, 0.00, -0.00, -1.00, 481.0, 456.0)">d</text><text xml:space="preserve" font-family="Verdana" font-size="13.3" fill="#FFFFFF" transform="matrix(1.00, 0.00, -0.00, -1.00, 489.3, 456.0)">a</text><text xml:space="preserve" font-family="Verdana" font-size="13.3" fill="#FFFFFF" transform="matrix(1.00, 0.00, -0.00, -1.00, 497.2, 456.0)">u</text><text xml:space="preserve" font-family="Verdana" font-size="13.3" fill="#FFFFFF" transform="matrix(1.00, 0.00, -0.00, -1.00, 505.7, 456.0)">g</text><text xml:space="preserve" font-family="Verdana" font-size="13.3" fill="#FFFFFF" transform="matrix(1.00, 0.00, -0.00, -1.00, 514.0, 456.0)">h</text><text xml:space="preserve" font-family="Verdana" font-size="13.3" fill="#FFFFFF" transform="matrix(1.00, 0.00, -0.00, -1.00, 522.4, 456.0)">t</text><text xml:space="preserve" font-family="Verdana" font-size="13.3" fill="#FFFFFF" transform="matrix(1.00, 0.00, -0.00, -1.00, 527.6, 456.0)">e</text><text xml:space="preserve" font-family="Verdana" font-size="13.3" fill="#FFFFFF" transform="matrix(1.00, 0.00, -0.00, -1.00, 535.6, 456.0)">r</text><text xml:space="preserve" font-family="Verdana" font-size="13.3" fill="#FFFFFF" transform="matrix(1.00, 0.00, -0.00, -1.00, 539.4, 456.0)">,</text><text xml:space="preserve" font-family="Verdana" font-size="13.3" fill="#FFFFFF" transform="matrix(1.00, 0.00, -0.00, -1.00, 544.2, 456.0)"> </text><text xml:space="preserve" font-family="Verdana" font-size="13.3" fill="#FFFFFF" transform="matrix(1.00, 0.00, -0.00, -1.00, 548.9, 456.0)">R</text><text xml:space="preserve" font-family="Verdana" font-size="13.3" fill="#FFFFFF" transform="matrix(1.00, 0.00, -0.00, -1.00, 558.0, 456.0)">u</text><text xml:space="preserve" font-family="Verdana" font-size="13.3" fill="#FFFFFF" transform="matrix(1.00, 0.00, -0.00, -1.00, 566.5, 456.0)">t</text><text xml:space="preserve" font-family="Verdana" font-size="13.3" fill="#FFFFFF" transform="matrix(1.00, 0.00, -0.00, -1.00, 571.7, 456.0)">h</text><text xml:space="preserve" font-family="Verdana" font-size="13.3" fill="#FFFFFF" transform="matrix(1.00, 0.00, -0.00, -1.00, 580.1, 456.0)">.</text><text xml:space="preserve" font-family="Verdana" font-size="13.3" fill="#FFFFFF" transform="matrix(1.00, 0.00, -0.00, -1.00, 585.0, 456.0)"> </text><text xml:space="preserve" font-family="Verdana" font-size="13.3" fill="#FFFFFF" transform="matrix(1.00, 0.00, -0.00, -1.00, 589.7, 456.0)"> </text><text xml:space="preserve" font-family="Verdana" font-size="13.3" fill="#FFFFFF" transform="matrix(1.00, 0.00, -0.00, -1.00, 594.3, 456.0)">S</text><text xml:space="preserve" font-family="Verdana" font-size="13.3" fill="#FFFFFF" transform="matrix(1.00, 0.00, -0.00, -1.00, 603.4, 456.0)">t</text><text xml:space="preserve" font-family="Verdana" font-size="13.3" fill="#FFFFFF" transform="matrix(1.00, 0.00, -0.00, -1.00, 608.7, 456.0)">i</text><text xml:space="preserve" font-family="Verdana" font-size="13.3" fill="#FFFFFF" transform="matrix(1.00, 0.00, -0.00, -1.00, 612.3, 456.0)">l</text><text xml:space="preserve" font-family="Verdana" font-size="13.3" fill="#FFFFFF" transform="matrix(1.00, 0.00, -0.00, -1.00, 616.0, 456.0)">l</text><text xml:space="preserve" font-family="Verdana" font-size="13.3" fill="#FFFFFF" transform="matrix(1.00, 0.00, -0.00, -1.00, 619.7, 456.0)"> </text><text xml:space="preserve" font-family="Verdana" font-size="13.3" fill="#FFFFFF" transform="matrix(1.00, 0.00, -0.00, -1.00, 624.3, 456.0)">t</text><text xml:space="preserve" font-family="Verdana" font-size="13.3" fill="#FFFFFF" transform="matrix(1.00, 0.00, -0.00, -1.00, 629.6, 456.0)">o</text><text xml:space="preserve" font-family="Verdana" font-size="13.3" fill="#FFFFFF" transform="matrix(1.00, 0.00, -0.00, -1.00, 637.7, 456.0)"> </text><text xml:space="preserve" font-family="Verdana" font-size="13.3" fill="#FFFFFF" transform="matrix(1.00, 0.00, -0.00, -1.00, 642.3, 456.0)">b</text><text xml:space="preserve" font-family="Verdana" font-size="13.3" fill="#FFFFFF" transform="matrix(1.00, 0.00, -0.00, -1.00, 650.6, 456.0)">e</text><text xml:space="preserve" font-family="Verdana" font-size="13.3" fill="#FFFFFF" transform="matrix(1.00, 0.00, -0.00, -1.00, 658.6, 456.0)"> </text><text xml:space="preserve" font-family="Verdana" font-size="13.3" fill="#FFFFFF" transform="matrix(1.00, 0.00, -0.00, -1.00, 112.0, 440.0)">d</text><text xml:space="preserve" font-family="Verdana" font-size="13.3" fill="#FFFFFF" transform="matrix(1.00, 0.00, -0.00, -1.00, 120.3, 440.0)">e</text><text xml:space="preserve" font-family="Verdana" font-size="13.3" fill="#FFFFFF" transform="matrix(1.00, 0.00, -0.00, -1.00, 128.2, 440.0)">t</text><text xml:space="preserve" font-family="Verdana" font-size="13.3" fill="#FFFFFF" transform="matrix(1.00, 0.00, -0.00, -1.00, 133.5, 440.0)">e</text><text xml:space="preserve" font-family="Verdana" font-size="13.3" fill="#FFFFFF" transform="matrix(1.00, 0.00, -0.00, -1.00, 141.4, 440.0)">r</text><text xml:space="preserve" font-family="Verdana" font-size="13.3" fill="#FFFFFF" transform="matrix(1.00, 0.00, -0.00, -1.00, 147.1, 440.0)">m</text><text xml:space="preserve" font-family="Verdana" font-size="13.3" fill="#FFFFFF" transform="matrix(1.00, 0.00, -0.00, -1.00, 160.0, 440.0)">i</text><text xml:space="preserve" font-family="Verdana" font-size="13.3" fill="#FFFFFF" transform="matrix(1.00, 0.00, -0.00, -1.00, 163.7, 440.0)">n</text><text xml:space="preserve" font-family="Verdana" font-size="13.3" fill="#FFFFFF" transform="matrix(1.00, 0.00, -0.00, -1.00, 172.1, 440.0)">e</text><text xml:space="preserve" font-family="Verdana" font-size="13.3" fill="#FFFFFF" transform="matrix(1.00, 0.00, -0.00, -1.00, 180.1, 440.0)">d</text><text xml:space="preserve" font-family="Verdana" font-size="13.3" fill="#FFFFFF" transform="matrix(1.00, 0.00, -0.00, -1.00, 188.4, 440.0)"> </text><text xml:space="preserve" font-family="Verdana" font-size="13.3" fill="#FFFFFF" transform="matrix(1.00, 0.00, -0.00, -1.00, 193.0, 440.0)">i</text><text xml:space="preserve" font-family="Verdana" font-size="13.3" fill="#FFFFFF" transform="matrix(1.00, 0.00, -0.00, -1.00, 196.7, 440.0)">s</text><text xml:space="preserve" font-family="Verdana" font-size="13.3" fill="#FFFFFF" transform="matrix(1.00, 0.00, -0.00, -1.00, 203.6, 440.0)"> </text><text xml:space="preserve" font-family="Verdana" font-size="13.3" fill="#FFFFFF" transform="matrix(1.00, 0.00, -0.00, -1.00, 208.3, 440.0)">w</text><text xml:space="preserve" font-family="Verdana" font-size="13.3" fill="#FFFFFF" transform="matrix(1.00, 0.00, -0.00, -1.00, 219.2, 440.0)">h</text><text xml:space="preserve" font-family="Verdana" font-size="13.3" fill="#FFFFFF" transform="matrix(1.00, 0.00, -0.00, -1.00, 227.6, 440.0)">e</text><text xml:space="preserve" font-family="Verdana" font-size="13.3" fill="#FFFFFF" transform="matrix(1.00, 0.00, -0.00, -1.00, 235.6, 440.0)">t</text><text xml:space="preserve" font-family="Verdana" font-size="13.3" fill="#FFFFFF" transform="matrix(1.00, 0.00, -0.00, -1.00, 240.8, 440.0)">h</text><text xml:space="preserve" font-family="Verdana" font-size="13.3" fill="#FFFFFF" transform="matrix(1.00, 0.00, -0.00, -1.00, 249.3, 440.0)">e</text><text xml:space="preserve" font-family="Verdana" font-size="13.3" fill="#FFFFFF" transform="matrix(1.00, 0.00, -0.00, -1.00, 257.2, 440.0)">r</text><text xml:space="preserve" font-family="Verdana" font-size="13.3" fill="#FFFFFF" transform="matrix(1.00, 0.00, -0.00, -1.00, 262.9, 440.0)"> </text><text xml:space="preserve" font-family="Verdana" font-size="13.3" fill="#FFFFFF" transform="matrix(1.00, 0.00, -0.00, -1.00, 267.5, 440.0)">A</text><text xml:space="preserve" font-family="Verdana" font-size="13.3" fill="#FFFFFF" transform="matrix(1.00, 0.00, -0.00, -1.00, 276.6, 440.0)">r</text><text xml:space="preserve" font-family="Verdana" font-size="13.3" fill="#FFFFFF" transform="matrix(1.00, 0.00, -0.00, -1.00, 282.3, 440.0)">n</text><text xml:space="preserve" font-family="Verdana" font-size="13.3" fill="#FFFFFF" transform="matrix(1.00, 0.00, -0.00, -1.00, 290.8, 440.0)">o</text><text xml:space="preserve" font-family="Verdana" font-size="13.3" fill="#FFFFFF" transform="matrix(1.00, 0.00, -0.00, -1.00, 298.8, 440.0)">l</text><text xml:space="preserve" font-family="Verdana" font-size="13.3" fill="#FFFFFF" transform="matrix(1.00, 0.00, -0.00, -1.00, 302.5, 440.0)">d</text><text xml:space="preserve" font-family="Verdana" font-size="13.3" fill="#FFFFFF" transform="matrix(1.00, 0.00, -0.00, -1.00, 310.8, 440.0)"> </text><text xml:space="preserve" font-family="Verdana" font-size="13.3" fill="#FFFFFF" transform="matrix(1.00, 0.00, -0.00, -1.00, 315.5, 440.0)">w</text><text xml:space="preserve" font-family="Verdana" font-size="13.3" fill="#FFFFFF" transform="matrix(1.00, 0.00, -0.00, -1.00, 326.2, 440.0)">a</text><text xml:space="preserve" font-family="Verdana" font-size="13.3" fill="#FFFFFF" transform="matrix(1.00, 0.00, -0.00, -1.00, 334.2, 440.0)">s</text><text xml:space="preserve" font-family="Verdana" font-size="13.3" fill="#FFFFFF" transform="matrix(1.00, 0.00, -0.00, -1.00, 341.2, 440.0)"> </text><text xml:space="preserve" font-family="Verdana" font-size="13.3" fill="#FFFFFF" transform="matrix(1.00, 0.00, -0.00, -1.00, 345.9, 440.0)">a</text><text xml:space="preserve" font-family="Verdana" font-size="13.3" fill="#FFFFFF" transform="matrix(1.00, 0.00, -0.00, -1.00, 353.9, 440.0)"> </text><text xml:space="preserve" font-family="Verdana" font-size="13.3" fill="#FFFFFF" transform="matrix(1.00, 0.00, -0.00, -1.00, 358.5, 440.0)">s</text><text xml:space="preserve" font-family="Verdana" font-size="13.3" fill="#FFFFFF" transform="matrix(1.00, 0.00, -0.00, -1.00, 365.5, 440.0)">c</text><text xml:space="preserve" font-family="Verdana" font-size="13.3" fill="#FFFFFF" transform="matrix(1.00, 0.00, -0.00, -1.00, 372.4, 440.0)">u</text><text xml:space="preserve" font-family="Verdana" font-size="13.3" fill="#FFFFFF" transform="matrix(1.00, 0.00, -0.00, -1.00, 380.8, 440.0)">l</text><text xml:space="preserve" font-family="Verdana" font-size="13.3" fill="#FFFFFF" transform="matrix(1.00, 0.00, -0.00, -1.00, 384.5, 440.0)">p</text><text xml:space="preserve" font-family="Verdana" font-size="13.3" fill="#FFFFFF" transform="matrix(1.00, 0.00, -0.00, -1.00, 392.8, 440.0)">t</text><text xml:space="preserve" font-family="Verdana" font-size="13.3" fill="#FFFFFF" transform="matrix(1.00, 0.00, -0.00, -1.00, 398.0, 440.0)">o</text><text xml:space="preserve" font-family="Verdana" font-size="13.3" fill="#FFFFFF" transform="matrix(1.00, 0.00, -0.00, -1.00, 406.1, 440.0)">r</text><text xml:space="preserve" font-family="Verdana" font-size="13.3" fill="#FFFFFF" transform="matrix(1.00, 0.00, -0.00, -1.00, 411.8, 440.0)"> </text><text xml:space="preserve" font-family="Verdana" font-size="13.3" fill="#FFFFFF" transform="matrix(1.00, 0.00, -0.00, -1.00, 416.5, 440.0)">a</text><text xml:space="preserve" font-family="Verdana" font-size="13.3" fill="#FFFFFF" transform="matrix(1.00, 0.00, -0.00, -1.00, 424.5, 440.0)">n</text><text xml:space="preserve" font-family="Verdana" font-size="13.3" fill="#FFFFFF" transform="matrix(1.00, 0.00, -0.00, -1.00, 432.9, 440.0)">d</text><text xml:space="preserve" font-family="Verdana" font-size="13.3" fill="#FFFFFF" transform="matrix(1.00, 0.00, -0.00, -1.00, 441.2, 440.0)"> </text><text xml:space="preserve" font-family="Verdana" font-size="13.3" fill="#FFFFFF" transform="matrix(1.00, 0.00, -0.00, -1.00, 445.9, 440.0)">i</text><text xml:space="preserve" font-family="Verdana" font-size="13.3" fill="#FFFFFF" transform="matrix(1.00, 0.00, -0.00, -1.00, 449.5, 440.0)">f</text><text xml:space="preserve" font-family="Verdana" font-size="13.3" fill="#FFFFFF" transform="matrix(1.00, 0.00, -0.00, -1.00, 454.2, 440.0)"> </text><text xml:space="preserve" font-family="Verdana" font-size="13.3" fill="#FFFFFF" transform="matrix(1.00, 0.00, -0.00, -1.00, 458.9, 440.0)">t</text><text xml:space="preserve" font-family="Verdana" font-size="13.3" fill="#FFFFFF" transform="matrix(1.00, 0.00, -0.00, -1.00, 464.1, 440.0)">h</text><text xml:space="preserve" font-family="Verdana" font-size="13.3" fill="#FFFFFF" transform="matrix(1.00, 0.00, -0.00, -1.00, 472.6, 440.0)">i</text><text xml:space="preserve" font-family="Verdana" font-size="13.3" fill="#FFFFFF" transform="matrix(1.00, 0.00, -0.00, -1.00, 476.2, 440.0)">s</text><text xml:space="preserve" font-family="Verdana" font-size="13.3" fill="#FFFFFF" transform="matrix(1.00, 0.00, -0.00, -1.00, 483.2, 440.0)"> </text><text xml:space="preserve" font-family="Verdana" font-size="13.3" fill="#FFFFFF" transform="matrix(1.00, 0.00, -0.00, -1.00, 487.9, 440.0)">s</text><text xml:space="preserve" font-family="Verdana" font-size="13.3" fill="#FFFFFF" transform="matrix(1.00, 0.00, -0.00, -1.00, 494.8, 440.0)">c</text><text xml:space="preserve" font-family="Verdana" font-size="13.3" fill="#FFFFFF" transform="matrix(1.00, 0.00, -0.00, -1.00, 501.7, 440.0)">u</text><text xml:space="preserve" font-family="Verdana" font-size="13.3" fill="#FFFFFF" transform="matrix(1.00, 0.00, -0.00, -1.00, 510.2, 440.0)">l</text><text xml:space="preserve" font-family="Verdana" font-size="13.3" fill="#FFFFFF" transform="matrix(1.00, 0.00, -0.00, -1.00, 513.8, 440.0)">p</text><text xml:space="preserve" font-family="Verdana" font-size="13.3" fill="#FFFFFF" transform="matrix(1.00, 0.00, -0.00, -1.00, 522.1, 440.0)">t</text><text xml:space="preserve" font-family="Verdana" font-size="13.3" fill="#FFFFFF" transform="matrix(1.00, 0.00, -0.00, -1.00, 527.4, 440.0)">u</text><text xml:space="preserve" font-family="Verdana" font-size="13.3" fill="#FFFFFF" transform="matrix(1.00, 0.00, -0.00, -1.00, 535.8, 440.0)">r</text><text xml:space="preserve" font-family="Verdana" font-size="13.3" fill="#FFFFFF" transform="matrix(1.00, 0.00, -0.00, -1.00, 541.5, 440.0)">e</text><text xml:space="preserve" font-family="Verdana" font-size="13.3" fill="#FFFFFF" transform="matrix(1.00, 0.00, -0.00, -1.00, 549.4, 440.0)"> </text><text xml:space="preserve" font-family="Verdana" font-size="13.3" fill="#FFFFFF" transform="matrix(1.00, 0.00, -0.00, -1.00, 554.1, 440.0)">w</text><text xml:space="preserve" font-family="Verdana" font-size="13.3" fill="#FFFFFF" transform="matrix(1.00, 0.00, -0.00, -1.00, 564.9, 440.0)">a</text><text xml:space="preserve" font-family="Verdana" font-size="13.3" fill="#FFFFFF" transform="matrix(1.00, 0.00, -0.00, -1.00, 572.9, 440.0)">s</text><text xml:space="preserve" font-family="Verdana" font-size="13.3" fill="#FFFFFF" transform="matrix(1.00, 0.00, -0.00, -1.00, 579.8, 440.0)"> </text><text xml:space="preserve" font-family="Verdana" font-size="13.3" fill="#FFFFFF" transform="matrix(1.00, 0.00, -0.00, -1.00, 584.5, 440.0)">c</text><text xml:space="preserve" font-family="Verdana" font-size="13.3" fill="#FFFFFF" transform="matrix(1.00, 0.00, -0.00, -1.00, 591.4, 440.0)">r</text><text xml:space="preserve" font-family="Verdana" font-size="13.3" fill="#FFFFFF" transform="matrix(1.00, 0.00, -0.00, -1.00, 597.1, 440.0)">e</text><text xml:space="preserve" font-family="Verdana" font-size="13.3" fill="#FFFFFF" transform="matrix(1.00, 0.00, -0.00, -1.00, 605.0, 440.0)">a</text><text xml:space="preserve" font-family="Verdana" font-size="13.3" fill="#FFFFFF" transform="matrix(1.00, 0.00, -0.00, -1.00, 613.0, 440.0)">t</text><text xml:space="preserve" font-family="Verdana" font-size="13.3" fill="#FFFFFF" transform="matrix(1.00, 0.00, -0.00, -1.00, 618.3, 440.0)">e</text><text xml:space="preserve" font-family="Verdana" font-size="13.3" fill="#FFFFFF" transform="matrix(1.00, 0.00, -0.00, -1.00, 626.2, 440.0)">d</text><text xml:space="preserve" font-family="Verdana" font-size="13.3" fill="#FFFFFF" transform="matrix(1.00, 0.00, -0.00, -1.00, 634.5, 440.0)"> </text><text xml:space="preserve" font-family="Verdana" font-size="13.3" fill="#FFFFFF" transform="matrix(1.00, 0.00, -0.00, -1.00, 639.2, 440.0)">b</text><text xml:space="preserve" font-family="Verdana" font-size="13.3" fill="#FFFFFF" transform="matrix(1.00, 0.00, -0.00, -1.00, 647.4, 440.0)">y</text><text xml:space="preserve" font-family="Verdana" font-size="13.3" fill="#FFFFFF" transform="matrix(1.00, 0.00, -0.00, -1.00, 655.3, 440.0)"> </text><text xml:space="preserve" font-family="Verdana" font-size="13.3" fill="#FFFFFF" transform="matrix(1.00, 0.00, -0.00, -1.00, 112.0, 424.0)">h</text><text xml:space="preserve" font-family="Verdana" font-size="13.3" fill="#FFFFFF" transform="matrix(1.00, 0.00, -0.00, -1.00, 120.4, 424.0)">i</text><text xml:space="preserve" font-family="Verdana" font-size="13.3" fill="#FFFFFF" transform="matrix(1.00, 0.00, -0.00, -1.00, 124.1, 424.0)">m</text><text xml:space="preserve" font-family="Verdana" font-size="13.3" fill="#FFFFFF" transform="matrix(1.00, 0.00, -0.00, -1.00, 137.0, 424.0)">.</text><text xml:space="preserve" font-family="LucidaGrande" font-size="13.3" fill="#FFFFFF" transform="matrix(1.00, 0.00, -0.00, -1.00, 141.9, 424.0)"> </text><g><clipPath id="clip-3443"><path d="M 145.0 369.0 L 308.0 369.0 L 308.0 81.0 L 145.0 81.0 Z M 144.9 369.0 "></path></clipPath><g clip-path="url(#clip-3443)"><image xlink:href="91578C0B19E625A623717B4907AB6071.png" width="166.00" height="300.00" transform="matrix(1.05, 0.00, -0.00, -1.06, 138.0, 369.0)"></image></g></g><image xlink:href="90EC3BA384F621ECB995B1D12072B23C.png" width="167.00" height="252.00" transform="matrix(1.14, 0.00, -0.00, -1.14, 348.0, 372.0)"></image></g></svg>