<?xml version="1.0" encoding="UTF-8" standalone="no"?><svg xmlns="http://www.w3.org/2000/svg" xmlns:xlink="http://www.w3.org/1999/xlink" clip-rule="evenodd" stroke-miterlimit="4.00" viewBox="0 0 720 540"><desc>SVG generated by Keynote</desc><defs><linearGradient id="gradSh1.87" x1="0.0" y1="0.0" x2="100.0" y2="0.0" gradientUnits="userSpaceOnUse" gradientTransform="matrix(0.00, 5.42, 7.22, 0.00, 360.0, -1.0)"><stop offset="0.00000" stop-color="#860C00"></stop><stop offset="0.08578" stop-color="#870C00"></stop><stop offset="0.09897" stop-color="#880D01"></stop><stop offset="0.10924" stop-color="#890D01"></stop><stop offset="0.13563" stop-color="#8B0E02"></stop><stop offset="0.14370" stop-color="#8C0E02"></stop><stop offset="0.20894" stop-color="#911004"></stop><stop offset="0.21261" stop-color="#921004"></stop><stop offset="0.35630" stop-color="#9E1408"></stop><stop offset="0.36217" stop-color="#9F1408"></stop><stop offset="0.65103" stop-color="#B81C10"></stop><stop offset="0.66129" stop-color="#B91C10"></stop><stop offset="0.79765" stop-color="#C42014"></stop><stop offset="0.79912" stop-color="#C52014"></stop><stop offset="1.00000" stop-color="#D62519"></stop></linearGradient></defs><g transform="matrix(1.00, 0.00, -0.00, -1.00, 0.0, 540.0)"><g><clipPath id="clip-2453"><path d="M 0.0 540.0 L 720.0 540.0 L 720.0 0.0 L 0.0 0.0 Z M 0.0 540.0 "></path></clipPath><g clip-path="url(#clip-2453)"><path d="M 0.0 540.0 L 720.0 540.0 L 720.0 0.0 L 0.0 0.0 Z M 0.0 540.0 " fill="url(#gradSh1.87)"></path></g></g><g><clipPath id="clip-2454"><path d="M -7.7 147.8 L 91.2 147.8 L 91.2 247.7 L -7.7 247.7 Z M -7.7 147.8 "></path></clipPath><g clip-path="url(#clip-2454)"><image xlink:href="../../9408F439-143C-4604-8AA0-907D6DBBA087/assets/E70D7D75A18E87CBE73ADEC43FEB1B3A.png" width="99.00" height="100.00" transform="matrix(1.00, 0.00, -0.00, -1.00, -8.0, 248.0)"></image></g></g><g><clipPath id="clip-2455"><path d="M 29.3 431.5 L 126.7 431.5 L 126.7 517.9 L 29.3 517.9 Z M 29.3 431.5 "></path></clipPath><g clip-path="url(#clip-2455)"><image xlink:href="../../9408F439-143C-4604-8AA0-907D6DBBA087/assets/5511AAF5957FEA511F648913D91C66C2.png" width="98.00" height="87.00" transform="matrix(1.00, 0.00, -0.00, -0.99, 29.0, 518.0)"></image></g></g><g><clipPath id="clip-2456"><path d="M 601.9 402.7 L 698.4 402.7 L 698.4 497.8 L 601.9 497.8 Z M 601.9 402.7 "></path></clipPath><g clip-path="url(#clip-2456)"><image xlink:href="../../9408F439-143C-4604-8AA0-907D6DBBA087/assets/AA0D8E73D34431475A638D0FF9E552F5.png" width="97.00" height="96.00" transform="matrix(0.99, 0.00, -0.00, -0.99, 602.0, 498.0)"></image></g></g><g><clipPath id="clip-2457"><path d="M 539.0 333.6 L 654.2 333.6 L 654.2 397.0 L 539.0 397.0 Z M 539.0 333.6 "></path></clipPath><g clip-path="url(#clip-2457)"><image xlink:href="../../9408F439-143C-4604-8AA0-907D6DBBA087/assets/4710DFB20583DEAD6F17517560162F70.png" width="116.00" height="63.00" transform="matrix(0.99, 0.00, -0.00, -1.00, 539.0, 397.0)"></image></g></g><g><clipPath id="clip-2458"><path d="M 605.3 58.6 L 717.1 58.6 L 717.1 141.1 L 605.3 141.1 Z M 605.3 58.6 "></path></clipPath><g clip-path="url(#clip-2458)"><image xlink:href="../../9408F439-143C-4604-8AA0-907D6DBBA087/assets/A9FFA84A700C94B402B9E467E82F2746.png" width="112.00" height="83.00" transform="matrix(1.00, 0.00, -0.00, -0.99, 605.0, 141.0)"></image></g></g><g><clipPath id="clip-2459"><path d="M 559.7 1.4 L 673.4 1.4 L 673.4 97.4 L 559.7 97.4 Z M 559.7 1.4 "></path></clipPath><g clip-path="url(#clip-2459)"><image xlink:href="../../9408F439-143C-4604-8AA0-907D6DBBA087/assets/EF7A04D23F8353594D285E3DB6656C72.png" width="114.00" height="96.00" transform="matrix(0.99, 0.00, -0.00, -1.00, 560.0, 97.0)"></image></g></g><g><clipPath id="clip-2460"><path d="M 602.4 168.0 L 688.3 168.0 L 688.3 246.7 L 602.4 246.7 Z M 602.4 168.0 "></path></clipPath><g clip-path="url(#clip-2460)"><image xlink:href="../../9408F439-143C-4604-8AA0-907D6DBBA087/assets/F9BE770B284F440602FD5722EEC71D40.png" width="86.00" height="79.00" transform="matrix(1.00, 0.00, -0.00, -1.00, 602.0, 247.0)"></image></g></g><g><clipPath id="clip-2461"><path d="M 531.8 35.5 L 604.3 35.5 L 604.3 126.7 L 531.8 126.7 Z M 531.8 35.5 "></path></clipPath><g clip-path="url(#clip-2461)"><image xlink:href="../../9408F439-143C-4604-8AA0-907D6DBBA087/assets/D0DC0B710177DD344F5A9DEFC62352AC.png" width="72.00" height="92.00" transform="matrix(1.00, 0.00, -0.00, -0.99, 532.0, 127.0)"></image></g></g><g><clipPath id="clip-2462"><path d="M 565.9 281.3 L 641.8 281.3 L 641.8 347.5 L 565.9 347.5 Z M 565.9 281.3 "></path></clipPath><g clip-path="url(#clip-2462)"><image xlink:href="../../9408F439-143C-4604-8AA0-907D6DBBA087/assets/15CABFDA75F68D7B7613986787ED9511.png" width="76.00" height="66.00" transform="matrix(1.00, 0.00, -0.00, -1.02, 566.0, 348.0)"></image></g></g><g><clipPath id="clip-2463"><path d="M 637.4 447.4 L 696.0 447.4 L 696.0 522.2 L 637.4 522.2 Z M 637.4 447.4 "></path></clipPath><g clip-path="url(#clip-2463)"><image xlink:href="../../9408F439-143C-4604-8AA0-907D6DBBA087/assets/73DD34A5EDC26D7AC3CE33478776AACC.png" width="58.00" height="75.00" transform="matrix(1.02, 0.00, -0.00, -1.00, 637.0, 522.0)"></image></g></g><g><clipPath id="clip-2464"><path d="M 543.4 419.5 L 618.7 419.5 L 618.7 456.5 L 543.4 456.5 Z M 543.4 419.5 "></path></clipPath><g clip-path="url(#clip-2464)"><image xlink:href="../../9408F439-143C-4604-8AA0-907D6DBBA087/assets/B7BD32F4870B8C0B0AF3ECE4F3293A24.png" width="76.00" height="37.00" transform="matrix(1.00, 0.00, -0.00, -0.97, 543.0, 456.0)"></image></g></g><g><clipPath id="clip-2465"><path d="M 54.7 436.8 L 125.8 436.8 L 125.8 520.3 L 54.7 520.3 Z M 54.7 436.8 "></path></clipPath><g clip-path="url(#clip-2465)"><image xlink:href="../../9408F439-143C-4604-8AA0-907D6DBBA087/assets/DBB1213ED9906DB8BBB8168252770151.png" width="71.00" height="84.00" transform="matrix(1.00, 0.00, -0.00, -0.99, 55.0, 520.0)"></image></g></g><g><clipPath id="clip-2466"><path d="M 690.7 374.4 L 724.3 374.4 L 724.3 444.5 L 690.7 444.5 Z M 690.7 374.4 "></path></clipPath><g clip-path="url(#clip-2466)"><image xlink:href="../../9408F439-143C-4604-8AA0-907D6DBBA087/assets/1E53F7E4997C5605C5FC38A77B892288.png" width="34.00" height="71.00" transform="matrix(0.97, 0.00, -0.00, -0.99, 691.0, 444.0)"></image></g></g><g><clipPath id="clip-2467"><path d="M -3.4 61.4 L 59.5 61.4 L 59.5 141.6 L -3.4 141.6 Z M -3.4 61.4 "></path></clipPath><g clip-path="url(#clip-2467)"><image xlink:href="../../9408F439-143C-4604-8AA0-907D6DBBA087/assets/23E145838ED009458A23CB15A8FFB0B6.png" width="63.00" height="81.00" transform="matrix(1.00, 0.00, -0.00, -1.00, -3.0, 142.0)"></image></g></g><g><clipPath id="clip-2468"><path d="M -4.3 276.5 L 39.8 276.5 L 39.8 352.3 L -4.3 352.3 Z M -4.3 276.5 "></path></clipPath><g clip-path="url(#clip-2468)"><image xlink:href="../../9408F439-143C-4604-8AA0-907D6DBBA087/assets/189B4D3211889A6D485E8A863242B998.png" width="44.00" height="76.00" transform="matrix(1.00, 0.00, -0.00, -1.00, -4.0, 352.0)"></image></g></g><g><clipPath id="clip-2469"><path d="M 669.1 -4.3 L 724.3 -4.3 L 724.3 57.6 L 669.1 57.6 Z M 669.1 -4.3 "></path></clipPath><g clip-path="url(#clip-2469)"><image xlink:href="../../9408F439-143C-4604-8AA0-907D6DBBA087/assets/0F63C6D7B396E8B3864CA983DC9F2002.png" width="55.00" height="62.00" transform="matrix(1.00, 0.00, -0.00, -1.00, 669.0, 58.0)"></image></g></g><g><clipPath id="clip-2470"><path d="M 613.0 276.5 L 717.6 276.5 L 717.6 422.9 L 613.0 422.9 Z M 613.0 276.5 "></path></clipPath><g clip-path="url(#clip-2470)"><image xlink:href="../../9408F439-143C-4604-8AA0-907D6DBBA087/assets/08C106BABAD9D72BC4B93B58C66191D6.png" width="105.00" height="147.00" transform="matrix(1.00, 0.00, -0.00, -1.00, 613.0, 423.0)"></image></g></g><g><clipPath id="clip-2471"><path d="M 619.2 54.7 L 711.8 54.7 L 711.8 101.3 L 619.2 101.3 Z M 619.2 54.7 "></path></clipPath><g clip-path="url(#clip-2471)"><image xlink:href="../../9408F439-143C-4604-8AA0-907D6DBBA087/assets/A147AF6D5782BE1648E4BC0E84B34A73.png" width="93.00" height="46.00" transform="matrix(1.00, 0.00, -0.00, -1.00, 619.0, 101.0)"></image></g></g><g><clipPath id="clip-2472"><path d="M 561.6 109.9 L 643.7 109.9 L 643.7 219.8 L 561.6 219.8 Z M 561.6 109.9 "></path></clipPath><g clip-path="url(#clip-2472)"><image xlink:href="../../9408F439-143C-4604-8AA0-907D6DBBA087/assets/72174FE7F66AF805013AB3DD2F41FA42.png" width="82.00" height="110.00" transform="matrix(1.00, 0.00, -0.00, -1.00, 562.0, 220.0)"></image></g></g><g><clipPath id="clip-2473"><path d="M 605.8 415.7 L 663.8 415.7 L 663.8 508.8 L 605.8 508.8 Z M 605.8 415.7 "></path></clipPath><g clip-path="url(#clip-2473)"><image xlink:href="../../9408F439-143C-4604-8AA0-907D6DBBA087/assets/664DD52B084456DBD7BE88E15D48C2D7.png" width="58.00" height="94.00" transform="matrix(1.00, 0.00, -0.00, -0.99, 606.0, 509.0)"></image></g></g><g><clipPath id="clip-2474"><path d="M 636.5 184.8 L 713.8 184.8 L 713.8 273.6 L 636.5 273.6 Z M 636.5 184.8 "></path></clipPath><g clip-path="url(#clip-2474)"><image xlink:href="../../9408F439-143C-4604-8AA0-907D6DBBA087/assets/98F6056BE61B033DA497075852B97D34.png" width="77.00" height="89.00" transform="matrix(1.01, 0.00, -0.00, -1.00, 636.0, 274.0)"></image></g></g><g><clipPath id="clip-2475"><path d="M -2.4 -3.4 L 42.2 -3.4 L 42.2 62.9 L -2.4 62.9 Z M -2.4 -3.4 "></path></clipPath><g clip-path="url(#clip-2475)"><image xlink:href="../../9408F439-143C-4604-8AA0-907D6DBBA087/assets/235B424E202654CE6867E3C391513243.png" width="44.00" height="67.00" transform="matrix(1.00, 0.00, -0.00, -0.99, -2.0, 63.0)"></image></g></g><g><clipPath id="clip-2476"><path d="M -3.8 186.2 L 73.0 186.2 L 73.0 278.4 L -3.8 278.4 Z M -3.8 186.2 "></path></clipPath><g clip-path="url(#clip-2476)"><image xlink:href="../../9408F439-143C-4604-8AA0-907D6DBBA087/assets/2319A82F99CA2860F5F12BDFC668426D.png" width="77.00" height="93.00" transform="matrix(1.00, 0.00, -0.00, -0.99, -4.0, 278.0)"></image></g></g><g><clipPath id="clip-2477"><path d="M -4.8 321.1 L 41.3 321.1 L 41.3 432.0 L -4.8 432.0 Z M -4.8 321.1 "></path></clipPath><g clip-path="url(#clip-2477)"><image xlink:href="../../9408F439-143C-4604-8AA0-907D6DBBA087/assets/5CD756441A46B72EB70FB75B4CE7912D.png" width="46.00" height="111.00" transform="matrix(1.00, 0.00, -0.00, -1.00, -5.0, 432.0)"></image></g></g><g><clipPath id="clip-2478"><path d="M -4.3 476.6 L 86.9 476.6 L 86.9 544.3 L -4.3 544.3 Z M -4.3 476.6 "></path></clipPath><g clip-path="url(#clip-2478)"><image xlink:href="../../9408F439-143C-4604-8AA0-907D6DBBA087/assets/DC5B1C957438D88E0FC684282D50A987.png" width="92.00" height="67.00" transform="matrix(0.99, 0.00, -0.00, -1.00, -4.0, 544.0)"></image></g></g><g><clipPath id="clip-2479"><path d="M 653.3 491.0 L 724.3 491.0 L 724.3 543.4 L 653.3 543.4 Z M 653.3 491.0 "></path></clipPath><g clip-path="url(#clip-2479)"><image xlink:href="../../9408F439-143C-4604-8AA0-907D6DBBA087/assets/E8D659A10B58242579F585DBAA3F0BC4.png" width="72.00" height="52.00" transform="matrix(0.99, 0.00, -0.00, -1.00, 653.0, 543.0)"></image></g></g><g><clipPath id="clip-2480"><path d="M 545.8 -3.4 L 644.2 -3.4 L 644.2 54.2 L 545.8 54.2 Z M 545.8 -3.4 "></path></clipPath><g clip-path="url(#clip-2480)"><image xlink:href="../../9408F439-143C-4604-8AA0-907D6DBBA087/assets/334C0C4660F585724208F83145EDCFA6.png" width="99.00" height="58.00" transform="matrix(0.99, 0.00, -0.00, -0.98, 546.0, 54.0)"></image></g></g><image xlink:href="9C51FE09BB0DC1C36EC3CBCD5BE797B8.jpeg" width="390.00" height="539.00" transform="matrix(1.00, 0.00, -0.00, -1.00, 330.0, 540.0)"></image><text xml:space="preserve" font-family="Tahoma" font-size="18.0" fill="#FFFFFF" transform="matrix(1.00, 0.00, -0.00, -1.00, 31.0, 450.0)">L</text><text xml:space="preserve" font-family="Tahoma" font-size="18.0" fill="#FFFFFF" transform="matrix(1.00, 0.00, -0.00, -1.00, 39.9, 450.0)">e</text><text xml:space="preserve" font-family="Tahoma" font-size="18.0" fill="#FFFFFF" transform="matrix(1.00, 0.00, -0.00, -1.00, 49.4, 450.0)">t</text><text xml:space="preserve" font-family="Tahoma" font-size="18.0" fill="#FFFFFF" transform="matrix(1.00, 0.00, -0.00, -1.00, 55.3, 450.0)">t</text><text xml:space="preserve" font-family="Tahoma" font-size="18.0" fill="#FFFFFF" transform="matrix(1.00, 0.00, -0.00, -1.00, 61.3, 450.0)">e</text><text xml:space="preserve" font-family="Tahoma" font-size="18.0" fill="#FFFFFF" transform="matrix(1.00, 0.00, -0.00, -1.00, 70.8, 450.0)">r</text><text xml:space="preserve" font-family="Tahoma" font-size="18.0" fill="#FFFFFF" transform="matrix(1.00, 0.00, -0.00, -1.00, 77.3, 450.0)"> </text><text xml:space="preserve" font-family="Tahoma" font-size="18.0" fill="#FFFFFF" transform="matrix(1.00, 0.00, -0.00, -1.00, 82.9, 450.0)">f</text><text xml:space="preserve" font-family="Tahoma" font-size="18.0" fill="#FFFFFF" transform="matrix(1.00, 0.00, -0.00, -1.00, 88.6, 450.0)">r</text><text xml:space="preserve" font-family="Tahoma" font-size="18.0" fill="#FFFFFF" transform="matrix(1.00, 0.00, -0.00, -1.00, 95.0, 450.0)">o</text><text xml:space="preserve" font-family="Tahoma" font-size="18.0" fill="#FFFFFF" transform="matrix(1.00, 0.00, -0.00, -1.00, 104.8, 450.0)">m</text><text xml:space="preserve" font-family="Tahoma" font-size="18.0" fill="#FFFFFF" transform="matrix(1.00, 0.00, -0.00, -1.00, 119.9, 450.0)"> </text><text xml:space="preserve" font-family="Tahoma" font-size="18.0" fill="#FFFFFF" transform="matrix(1.00, 0.00, -0.00, -1.00, 125.5, 450.0)">L</text><text xml:space="preserve" font-family="Tahoma" font-size="18.0" fill="#FFFFFF" transform="matrix(1.00, 0.00, -0.00, -1.00, 134.4, 450.0)">o</text><text xml:space="preserve" font-family="Tahoma" font-size="18.0" fill="#FFFFFF" transform="matrix(1.00, 0.00, -0.00, -1.00, 144.2, 450.0)">r</text><text xml:space="preserve" font-family="Tahoma" font-size="18.0" fill="#FFFFFF" transform="matrix(1.00, 0.00, -0.00, -1.00, 150.4, 450.0)">a</text><text xml:space="preserve" font-family="Tahoma" font-size="18.0" fill="#FFFFFF" transform="matrix(1.00, 0.00, -0.00, -1.00, 159.9, 450.0)">d</text><text xml:space="preserve" font-family="Tahoma" font-size="18.0" fill="#FFFFFF" transform="matrix(1.00, 0.00, -0.00, -1.00, 169.8, 450.0)">o</text><text xml:space="preserve" font-family="Tahoma" font-size="18.0" fill="#FFFFFF" transform="matrix(1.00, 0.00, -0.00, -1.00, 179.6, 450.0)"> </text><text xml:space="preserve" font-family="Tahoma" font-size="18.0" fill="#FFFFFF" transform="matrix(1.00, 0.00, -0.00, -1.00, 185.2, 450.0)">T</text><text xml:space="preserve" font-family="Tahoma" font-size="18.0" fill="#FFFFFF" transform="matrix(1.00, 0.00, -0.00, -1.00, 193.7, 450.0)">a</text><text xml:space="preserve" font-family="Tahoma" font-size="18.0" fill="#FFFFFF" transform="matrix(1.00, 0.00, -0.00, -1.00, 203.1, 450.0)">f</text><text xml:space="preserve" font-family="Tahoma" font-size="18.0" fill="#FFFFFF" transform="matrix(1.00, 0.00, -0.00, -1.00, 208.9, 450.0)">t</text><text xml:space="preserve" font-family="Tahoma" font-size="18.0" fill="#FFFFFF" transform="matrix(1.00, 0.00, -0.00, -1.00, 214.9, 450.0)"> </text><text xml:space="preserve" font-family="Tahoma" font-size="18.0" fill="#FFFFFF" transform="matrix(1.00, 0.00, -0.00, -1.00, 35.0, 428.0)">T</text><text xml:space="preserve" font-family="Tahoma" font-size="18.0" fill="#FFFFFF" transform="matrix(1.00, 0.00, -0.00, -1.00, 43.7, 428.0)">o</text><text xml:space="preserve" font-family="Tahoma" font-size="18.0" fill="#FFFFFF" transform="matrix(1.00, 0.00, -0.00, -1.00, 53.4, 428.0)"> </text><text xml:space="preserve" font-family="Tahoma" font-size="18.0" fill="#FFFFFF" transform="matrix(1.00, 0.00, -0.00, -1.00, 59.1, 428.0)">W</text><text xml:space="preserve" font-family="Tahoma" font-size="18.0" fill="#FFFFFF" transform="matrix(1.00, 0.00, -0.00, -1.00, 74.6, 428.0)">a</text><text xml:space="preserve" font-family="Tahoma" font-size="18.0" fill="#FFFFFF" transform="matrix(1.00, 0.00, -0.00, -1.00, 84.1, 428.0)">l</text><text xml:space="preserve" font-family="Tahoma" font-size="18.0" fill="#FFFFFF" transform="matrix(1.00, 0.00, -0.00, -1.00, 88.2, 428.0)">t</text><text xml:space="preserve" font-family="Tahoma" font-size="18.0" fill="#FFFFFF" transform="matrix(1.00, 0.00, -0.00, -1.00, 94.2, 428.0)">e</text><text xml:space="preserve" font-family="Tahoma" font-size="18.0" fill="#FFFFFF" transform="matrix(1.00, 0.00, -0.00, -1.00, 103.7, 428.0)">r</text><text xml:space="preserve" font-family="Tahoma" font-size="18.0" fill="#FFFFFF" transform="matrix(1.00, 0.00, -0.00, -1.00, 110.2, 428.0)"> </text><text xml:space="preserve" font-family="Tahoma" font-size="18.0" fill="#FFFFFF" transform="matrix(1.00, 0.00, -0.00, -1.00, 115.8, 428.0)">Z</text><text xml:space="preserve" font-family="Tahoma" font-size="18.0" fill="#FFFFFF" transform="matrix(1.00, 0.00, -0.00, -1.00, 125.9, 428.0)">i</text><text xml:space="preserve" font-family="Tahoma" font-size="18.0" fill="#FFFFFF" transform="matrix(1.00, 0.00, -0.00, -1.00, 130.0, 428.0)">m</text><text xml:space="preserve" font-family="Tahoma" font-size="18.0" fill="#FFFFFF" transform="matrix(1.00, 0.00, -0.00, -1.00, 145.1, 428.0)">m</text><text xml:space="preserve" font-family="Tahoma" font-size="18.0" fill="#FFFFFF" transform="matrix(1.00, 0.00, -0.00, -1.00, 160.2, 428.0)">e</text><text xml:space="preserve" font-family="Tahoma" font-size="18.0" fill="#FFFFFF" transform="matrix(1.00, 0.00, -0.00, -1.00, 169.7, 428.0)">r</text><text xml:space="preserve" font-family="Tahoma" font-size="18.0" fill="#FFFFFF" transform="matrix(1.00, 0.00, -0.00, -1.00, 176.2, 428.0)">m</text><text xml:space="preserve" font-family="Tahoma" font-size="18.0" fill="#FFFFFF" transform="matrix(1.00, 0.00, -0.00, -1.00, 191.3, 428.0)">a</text><text xml:space="preserve" font-family="Tahoma" font-size="18.0" fill="#FFFFFF" transform="matrix(1.00, 0.00, -0.00, -1.00, 200.8, 428.0)">n</text></g></svg>